HIERARCHY
ROOT Hips
{
	OFFSET 0.000000 0.000000 0.000000
	CHANNELS 6 Xposition Yposition Zposition Zrotation Yrotation Xrotation 
	JOINT LHipJoint
	{
		OFFSET 0.000000 0.000000 0.000000
		CHANNELS 3 Zrotation Yrotation Xrotation
		JOINT LeftUpLeg
		{
			OFFSET 1.363060 -1.794630 0.839290
			CHANNELS 3 Zrotation Yrotation Xrotation
			JOINT LeftLeg
			{
				OFFSET 2.448110 -6.726130 0.000000
				CHANNELS 3 Zrotation Yrotation Xrotation
				JOINT LeftFoot
				{
					OFFSET 2.562200 -7.039590 0.000000
					CHANNELS 3 Zrotation Yrotation Xrotation
					JOINT LeftToeBase
					{
						OFFSET 0.157640 -0.433110 2.322550
						CHANNELS 3 Zrotation Yrotation Xrotation
						End Site
						{
							OFFSET 0.000000 0.000000 0.000000
						}
					}
				}
			}
		}
	}
	JOINT RHipJoint
	{
		OFFSET 0.000000 0.000000 0.000000
		CHANNELS 3 Zrotation Yrotation Xrotation
		JOINT RightUpLeg
		{
			OFFSET -1.305520 -1.794630 0.839290
			CHANNELS 3 Zrotation Yrotation Xrotation
			JOINT RightLeg
			{
				OFFSET -2.542530 -6.985550 0.000000
				CHANNELS 3 Zrotation Yrotation Xrotation
				JOINT RightFoot
				{
					OFFSET -2.568260 -7.056230 0.000000
					CHANNELS 3 Zrotation Yrotation Xrotation
					JOINT RightToeBase
					{
						OFFSET -0.164730 -0.452590 2.363150
						CHANNELS 3 Zrotation Yrotation Xrotation
						End Site
						{
							OFFSET 0.000000 0.000000 0.000000
						}
					}
				}
			}
		}
	}
	JOINT LowerBack
	{
		OFFSET 0.000000 0.000000 0.000000
		CHANNELS 3 Zrotation Yrotation Xrotation
		JOINT Spine
		{
			OFFSET 0.028270 2.035590 -0.193380
			CHANNELS 3 Zrotation Yrotation Xrotation
			JOINT Spine1
			{
				OFFSET 0.056720 2.048850 -0.042750
				CHANNELS 3 Zrotation Yrotation Xrotation
				JOINT Neck
				{
					OFFSET 0.000000 0.000000 0.000000
					CHANNELS 3 Zrotation Yrotation Xrotation
					JOINT Neck1
					{
						OFFSET -0.054170 1.746240 0.172020
						CHANNELS 3 Zrotation Yrotation Xrotation
						JOINT Head
						{
							OFFSET 0.104070 1.761360 -0.123970
							CHANNELS 3 Zrotation Yrotation Xrotation
							End Site
							{
								OFFSET 0.000000 0.000000 0.000000
							}
						}
					}
				}
				JOINT LeftShoulder
				{
					OFFSET 0.000000 0.000000 0.000000
					CHANNELS 3 Zrotation Yrotation Xrotation
					JOINT LeftArm
					{
						OFFSET 3.362410 1.200890 -0.311210
						CHANNELS 3 Zrotation Yrotation Xrotation
						JOINT LeftForeArm
						{
							OFFSET 4.983000 -0.000000 -0.000000
							CHANNELS 3 Zrotation Yrotation Xrotation
							JOINT LeftHand
							{
								OFFSET 3.483560 -0.000000 -0.000000
								CHANNELS 3 Zrotation Yrotation Xrotation
								JOINT LeftFingerBase
								{
									OFFSET 0.000000 0.000000 0.000000
									CHANNELS 3 Zrotation Yrotation Xrotation
									JOINT LeftHandIndex1
									{
										OFFSET 0.715260 -0.000000 -0.000000
										CHANNELS 3 Zrotation Yrotation Xrotation
										End Site
										{
											OFFSET 0.000000 0.000000 0.000000
										}
									}
								}
								JOINT LThumb
								{
									OFFSET 0.000000 0.000000 0.000000
									CHANNELS 3 Zrotation Yrotation Xrotation
									End Site
									{
										OFFSET 0.000000 0.000000 0.000000
									}
								}
							}
						}
					}
				}
				JOINT RightShoulder
				{
					OFFSET 0.000000 0.000000 0.000000
					CHANNELS 3 Zrotation Yrotation Xrotation
					JOINT RightArm
					{
						OFFSET -3.136600 1.374050 -0.404650
						CHANNELS 3 Zrotation Yrotation Xrotation
						JOINT RightForeArm
						{
							OFFSET -5.241900 -0.000000 -0.000000
							CHANNELS 3 Zrotation Yrotation Xrotation
							JOINT RightHand
							{
								OFFSET -3.444170 -0.000000 -0.000000
								CHANNELS 3 Zrotation Yrotation Xrotation
								JOINT RightFingerBase
								{
									OFFSET 0.000000 0.000000 0.000000
									CHANNELS 3 Zrotation Yrotation Xrotation
									JOINT RightHandIndex1
									{
										OFFSET -0.622530 -0.000000 -0.000000
										CHANNELS 3 Zrotation Yrotation Xrotation
										End Site
										{
											OFFSET 0.000000 0.000000 0.000000
										}
									}
								}
								JOINT RThumb
								{
									OFFSET 0.000000 0.000000 0.000000
									CHANNELS 3 Zrotation Yrotation Xrotation
									End Site
									{
										OFFSET 0.000000 0.000000 0.000000
									}
								}
							}
						}
					}
				}
			}
		}
	}
}
MOTION
Frames: 5
Frame Time: 0.008333
23.902609 15.356522 4.742647 -6.692632 -86.298228 36.117695 -13.468570 4.398711 -0.492553 2.731217 9.019855 1.247687 -1.022795 0.632182 13.288358 0.950770 6.362790 7.009159 1.317600 0.000000 -87.414300 7.469928 2.090708 3.460245 5.154029 5.922657 -75.817936 0.347887 -4.289360 54.163850 -2.035387 -6.742096 -7.559756 -0.789900 0.000000 -39.693300 13.208723 -4.287217 -1.577592 1.743625 -5.231697 -2.912948 -8.360153 -5.302156 1.912274 9.962339 -11.190526 -7.155349 -4.339013 -0.322132 -0.014334 0.000000 0.000000 0.000000 0.404095 0.648791 3.030709 -31.740356 -35.040979 13.567503 -0.959211 -77.024286 0.055422 -6.913155 -1.657019 0.129044 0.031920 0.447855 0.000000 0.000000 0.000000 0.000000 0.000000 0.000000 0.000000 19.687326 -11.828040 1.859970 60.829801 -9.050324 -6.834194 3.566914 29.169869 0.030089 1.164225 16.597679 0.158245 0.094582 -0.094062 0.000000 0.000000 0.000000 0.000000 0.000000 0.000000 0.000000 
23.646514 15.390789 4.710209 -8.417675 -86.391775 38.074819 -13.674038 4.439564 -0.376051 3.002790 8.718429 0.031204 -0.807150 0.835661 15.708651 1.114201 7.024992 9.713133 1.689800 0.000000 -86.297700 7.325539 2.033082 3.382441 5.587199 6.239382 -75.191062 0.317259 -4.237733 54.824408 -2.161157 -7.081662 -8.683664 -0.638200 -0.000000 -39.075000 13.582209 -4.226460 -1.640650 1.796053 -5.202962 -2.939366 -8.444771 -5.279923 1.861155 10.024888 -10.625682 -7.090813 -4.418894 -0.327940 -0.002194 0.000000 0.000000 0.000000 0.310964 0.696654 3.118048 -31.125423 -34.054908 13.599702 -0.941021 -77.536797 0.055967 -7.053175 -1.643920 0.130420 0.030100 0.443350 0.000000 0.000000 0.000000 0.000000 0.000000 0.000000 0.000000 20.017167 -11.274749 1.889889 60.419035 -7.989700 -7.469014 3.582980 28.256039 0.029976 1.051651 16.694894 0.142540 0.094317 -0.093874 0.000000 0.000000 0.000000 0.000000 0.000000 0.000000 0.000000 
23.392673 15.432905 4.675409 -9.756468 -86.517366 39.637794 -13.845418 4.432082 -0.261399 3.136568 8.378936 -1.371494 -0.607002 1.011793 18.422403 1.298653 7.722060 12.184776 2.087700 -0.000000 -83.721200 7.203790 1.955558 3.306686 6.036539 6.488860 -74.435699 0.326216 -4.175684 55.237268 -2.259704 -7.263441 -9.877421 -0.452100 -0.000000 -38.631700 13.852923 -4.164139 -1.697509 1.825965 -5.167255 -2.962890 -8.528856 -5.248979 1.811055 10.114488 -10.019662 -7.001736 -4.502203 -0.334072 0.016887 0.000000 0.000000 0.000000 0.248384 0.740014 3.207210 -30.666700 -33.024545 13.787256 -0.934024 -77.869744 0.056126 -7.172357 -1.661630 0.133205 0.026810 0.436834 0.000000 0.000000 0.000000 0.000000 0.000000 0.000000 0.000000 20.397284 -10.683622 1.910959 59.992148 -6.866653 -7.985487 3.599154 27.338360 0.029799 0.985605 16.778782 0.133533 0.093667 -0.093702 0.000000 0.000000 0.000000 0.000000 0.000000 0.000000 0.000000 
23.141681 15.482456 4.638177 -10.628682 -86.673261 40.719684 -13.967518 4.379905 -0.154957 3.117344 8.010055 -2.947359 -0.436078 1.163141 21.406126 1.490092 8.444098 14.291677 2.499200 0.000000 -79.771900 7.117262 1.865496 3.233285 6.478094 6.653534 -73.556203 0.370486 -4.106044 55.409936 -2.328053 -7.284742 -11.088835 -0.247401 0.000000 -38.361900 14.012136 -4.099977 -1.744861 1.831529 -5.123403 -2.982792 -8.610342 -5.208047 1.761941 10.230556 -9.380410 -6.887143 -4.588136 -0.340472 0.043295 0.000000 0.000000 0.000000 0.230382 0.770092 3.295874 -30.375285 -31.960128 14.125833 -0.938216 -78.015238 0.055916 -7.273771 -1.705581 0.137303 0.022283 0.428275 0.000000 0.000000 0.000000 0.000000 0.000000 0.000000 0.000000 20.826704 -10.062694 1.924154 59.552155 -5.689866 -8.369853 3.615294 26.435677 0.029568 0.963259 16.842454 0.130925 0.092704 -0.093637 0.000000 0.000000 0.000000 0.000000 0.000000 0.000000 0.000000 
22.893887 15.539112 4.599357 -11.159486 -86.857628 41.445460 -14.047640 4.289749 -0.063344 2.966217 7.648147 -4.695611 -0.301872 1.298829 24.625914 1.673860 9.168605 15.931766 2.903001 -0.000000 -74.773600 7.060719 1.762751 3.164000 6.913506 6.739142 -72.554751 0.446320 -4.026889 55.341120 -2.367526 -7.164690 -12.261566 -0.042800 -0.000000 -38.263100 14.073475 -4.029933 -1.781626 1.815989 -5.067774 -2.999212 -8.685928 -5.153852 1.714221 10.362739 -8.713736 -6.747048 -4.674974 -0.347005 0.076959 0.000000 0.000000 0.000000 0.250396 0.786940 3.383129 -30.252992 -30.880827 14.605545 -0.954643 -77.965839 0.055381 -7.362021 -1.771645 0.142410 0.016715 0.417800 0.000000 0.000000 0.000000 0.000000 0.000000 0.000000 0.000000 21.288490 -9.415433 1.931651 59.102421 -4.467881 -8.617762 3.631585 25.567198 0.029284 0.983678 16.876398 0.134416 0.091489 -0.093790 0.000000 0.000000 0.000000 0.000000 0.000000 0.000000 0.000000 
